<svg width="25" height="23" viewBox="0 0 25 23" fill="none" xmlns="http://www.w3.org/2000/svg">
<g clip-path="url(#clip0_319_17314)">
<path d="M7.66558 22.4494C7.20078 22.151 6.78884 21.7822 6.44558 21.3574C6.06801 20.9188 5.71817 20.4587 5.39798 19.9796C4.64659 18.9173 4.05734 17.7563 3.64829 16.5322C3.1569 15.1104 2.91895 13.7475 2.91895 12.4145C2.91895 10.9258 3.25268 9.62619 3.9054 8.53419C4.38926 7.68067 5.10065 6.96741 5.96598 6.46821C6.80459 5.96555 7.76816 5.69048 8.75517 5.67196C9.10069 5.67196 9.47273 5.7203 9.86761 5.81272C10.1512 5.89022 10.4968 6.0125 10.9189 6.16464C11.456 6.36441 11.7514 6.48669 11.8516 6.51655C12.1661 6.62746 12.4306 6.6758 12.6384 6.6758C12.796 6.6758 13.0185 6.62746 13.2712 6.55352C13.4134 6.50518 13.6816 6.41986 14.0654 6.26132C14.4455 6.12767 14.7446 6.01321 14.9826 5.9279C15.3473 5.8241 15.7002 5.72812 16.0147 5.67978C16.3877 5.62304 16.7661 5.60801 17.1426 5.63499C17.7951 5.67614 18.4377 5.80956 19.05 6.03098C20.0512 6.41986 20.8608 7.027 21.4634 7.89008C21.2087 8.04158 20.9697 8.21632 20.7496 8.41191C20.2704 8.82182 19.8623 9.30304 19.5406 9.83734C19.1202 10.5675 18.9022 11.3901 18.9078 12.2254C18.9233 13.2513 19.1959 14.1549 19.7329 14.9362C20.1278 15.5152 20.6409 16.0104 21.241 16.3915C21.5482 16.5912 21.8127 16.7285 22.0661 16.8209C21.9475 17.1763 21.8208 17.5204 21.6712 17.8617C21.332 18.6269 20.9209 19.3606 20.4431 20.0535C20.0173 20.65 19.6836 21.0943 19.4301 21.3901C19.0352 21.8415 18.6551 22.1863 18.2713 22.4266C17.8491 22.6968 17.3504 22.8411 16.8435 22.8411C16.5003 22.8538 16.1571 22.8137 15.8269 22.7224C15.5432 22.63 15.2625 22.5297 14.9863 22.4152C14.6991 22.2879 14.4029 22.1803 14.1 22.0932C13.3513 21.9076 12.5663 21.9064 11.8169 22.0896C11.5097 22.175 11.2143 22.2745 10.9226 22.3968C10.5122 22.5631 10.2396 22.6747 10.082 22.7224C9.76742 22.8112 9.44105 22.8667 9.11101 22.8852C8.60046 22.8852 8.12455 22.7444 7.65305 22.4593L7.66558 22.4494ZM14.3991 4.94964C13.7317 5.2717 13.0944 5.40891 12.4616 5.36412C12.3621 4.74916 12.4616 4.11998 12.726 3.43108C12.9512 2.84745 13.2839 2.30793 13.7081 1.83858C14.156 1.3445 14.6996 0.939514 15.3082 0.64634C15.9565 0.324285 16.5746 0.150105 17.1655 0.124512C17.2421 0.768621 17.1655 1.40207 16.9201 2.0867C16.6931 2.69191 16.361 3.25543 15.9381 3.75314C15.5064 4.2479 14.9767 4.65445 14.38 4.94893L14.3991 4.94964Z" fill="black"/>
</g>
<defs>
<clipPath id="clip0_319_17314">
<rect width="23.5748" height="22.75" fill="white" transform="translate(0.712891 0.125)"/>
</clipPath>
</defs>
</svg>
